{"accessors" : [{"bufferView" : 0, "byteOffset" : 0, "componentType" : 5123, "count" : 570, "type" : "SCALAR", "max" : [564], "min" : [0]}, {"bufferView" : 1, "byteOffset" : 0, "componentType" : 5126, "count" : 565, "type" : "VEC3", "max" : [12.555980682373047, 13.199295043945312, 54.979095458984375], "min" : [-12.55057144165039, -13.199295043945312, 0], "name" : "POSITION"}, {"bufferView" : 1, "byteOffset" : 12, "componentType" : 5126, "count" : 565, "type" : "VEC3", "max" : [0.9906479120254517, 0.9422502517700195, 0.9888073205947876], "min" : [-1.0000044107437134, -0.9423468112945557, -1.0000044107437134], "name" : "NORMAL"}], "asset" : {"generator" : "Aspose.3D 23.7.0", "version" : "2.0"}, "buffers" : [{"uri" : "data:application/octet-stream;base64,", "byteLength" : 14828}], "bufferViews" : [{"buffer" : 0, "byteOffset" : 0, "byteLength" : 1140, "target" : 34963}, {"buffer" : 0, "byteOffset" : 1144, "byteLength" : 13680, "byteStride" : 24, "target" : 34962}], "meshes" : [{"primitives" : [{"attributes" : {"POSITION" : 1, "NORMAL" : 2}, "indices" : 0, "mode" : 4}], "name" : ""}], "nodes" : [{"mesh" : 0, "name" : ""}], "scene" : 0, "scenes" : [{"nodes" : [0]}]}