{"accessors" : [{"bufferView" : 0, "byteOffset" : 0, "componentType" : 5123, "count" : 1554, "type" : "SCALAR", "max" : [1526], "min" : [0]}, {"bufferView" : 1, "byteOffset" : 0, "componentType" : 5126, "count" : 1527, "type" : "VEC3", "max" : [12.553277015686035, 13.199295043945312, 77.05068969726562], "min" : [-12.553277015686035, -13.199295043945312, 0], "name" : "POSITION"}, {"bufferView" : 1, "byteOffset" : 12, "componentType" : 5126, "count" : 1527, "type" : "VEC3", "max" : [1.0000044107437134, 0.9938099980354309, 1.0000044107437134], "min" : [-1.0000044107437134, -0.9938098192214966, -1.0000044107437134], "name" : "NORMAL"}], "asset" : {"generator" : "Aspose.3D 23.7.0", "version" : "2.0"}, "buffers" : [{"uri" : "data:application/octet-stream;base64,", "byteLength" : 40412}], "bufferViews" : [{"buffer" : 0, "byteOffset" : 0, "byteLength" : 3108, "target" : 34963}, {"buffer" : 0, "byteOffset" : 3112, "byteLength" : 37296, "byteStride" : 24, "target" : 34962}], "meshes" : [{"primitives" : [{"attributes" : {"POSITION" : 1, "NORMAL" : 2}, "indices" : 0, "mode" : 4}], "name" : ""}], "nodes" : [{"mesh" : 0, "name" : ""}], "scene" : 0, "scenes" : [{"nodes" : [0]}]}