{"accessors" : [{"bufferView" : 0, "byteOffset" : 0, "componentType" : 5123, "count" : 618, "type" : "SCALAR", "max" : [612], "min" : [0]}, {"bufferView" : 1, "byteOffset" : 0, "componentType" : 5126, "count" : 613, "type" : "VEC3", "max" : [15.779905319213867, 13.199295997619629, 45.4211540222168], "min" : [-15.779905319213867, -13.199295997619629, 0], "name" : "POSITION"}, {"bufferView" : 1, "byteOffset" : 12, "componentType" : 5126, "count" : 613, "type" : "VEC3", "max" : [0.9989513754844666, 0.9837879538536072, 0.9896187782287598], "min" : [-0.989856481552124, -0.9833497405052185, -1.0000044107437134], "name" : "NORMAL"}], "asset" : {"generator" : "Aspose.3D 23.7.0", "version" : "2.0"}, "buffers" : [{"uri" : "data:application/octet-stream;base64,", "byteLength" : 16076}], "bufferViews" : [{"buffer" : 0, "byteOffset" : 0, "byteLength" : 1236, "target" : 34963}, {"buffer" : 0, "byteOffset" : 1240, "byteLength" : 14832, "byteStride" : 24, "target" : 34962}], "meshes" : [{"primitives" : [{"attributes" : {"POSITION" : 1, "NORMAL" : 2}, "indices" : 0, "mode" : 4}], "name" : ""}], "nodes" : [{"mesh" : 0, "name" : ""}], "scene" : 0, "scenes" : [{"nodes" : [0]}]}