{"accessors" : [{"bufferView" : 0, "byteOffset" : 0, "componentType" : 5123, "count" : 354, "type" : "SCALAR", "max" : [347], "min" : [0]}, {"bufferView" : 1, "byteOffset" : 0, "componentType" : 5126, "count" : 348, "type" : "VEC3", "max" : [12.553276062011719, 13.199295043945312, 37.08047103881836], "min" : [-12.553276062011719, -13.199295043945312, 0], "name" : "POSITION"}, {"bufferView" : 1, "byteOffset" : 12, "componentType" : 5126, "count" : 348, "type" : "VEC3", "max" : [0.9722467064857483, 0.9885222911834717, 1.0000044107437134], "min" : [-0.9722467064857483, -0.9885222911834717, -1.0000044107437134], "name" : "NORMAL"}], "asset" : {"generator" : "Aspose.3D 23.7.0", "version" : "2.0"}, "buffers" : [{"uri" : "data:application/octet-stream;base64,", "byteLength" : 9212}], "bufferViews" : [{"buffer" : 0, "byteOffset" : 0, "byteLength" : 708, "target" : 34963}, {"buffer" : 0, "byteOffset" : 712, "byteLength" : 8496, "byteStride" : 24, "target" : 34962}], "meshes" : [{"primitives" : [{"attributes" : {"POSITION" : 1, "NORMAL" : 2}, "indices" : 0, "mode" : 4}], "name" : ""}], "nodes" : [{"mesh" : 0, "name" : ""}], "scene" : 0, "scenes" : [{"nodes" : [0]}]}