{"accessors" : [{"bufferView" : 0, "byteOffset" : 0, "componentType" : 5123, "count" : 606, "type" : "SCALAR", "max" : [599], "min" : [0]}, {"bufferView" : 1, "byteOffset" : 0, "componentType" : 5126, "count" : 600, "type" : "VEC3", "max" : [12.553277015686035, 13.199302673339844, 63.638282775878906], "min" : [-12.553277015686035, -13.199302673339844, 0], "name" : "POSITION"}, {"bufferView" : 1, "byteOffset" : 12, "componentType" : 5126, "count" : 600, "type" : "VEC3", "max" : [0.9928970336914062, 0.9843084812164307, 1.0000044107437134], "min" : [-0.992897093296051, -0.9843081831932068, -1.0000044107437134], "name" : "NORMAL"}], "asset" : {"generator" : "Aspose.3D 23.7.0", "version" : "2.0"}, "buffers" : [{"uri" : "data:application/octet-stream;base64,", "byteLength" : 15764}], "bufferViews" : [{"buffer" : 0, "byteOffset" : 0, "byteLength" : 1212, "target" : 34963}, {"buffer" : 0, "byteOffset" : 1216, "byteLength" : 14544, "byteStride" : 24, "target" : 34962}], "meshes" : [{"primitives" : [{"attributes" : {"POSITION" : 1, "NORMAL" : 2}, "indices" : 0, "mode" : 4}], "name" : ""}], "nodes" : [{"mesh" : 0, "name" : ""}], "scene" : 0, "scenes" : [{"nodes" : [0]}]}