{"accessors" : [{"bufferView" : 0, "byteOffset" : 0, "componentType" : 5123, "count" : 462, "type" : "SCALAR", "max" : [455], "min" : [0]}, {"bufferView" : 1, "byteOffset" : 0, "componentType" : 5126, "count" : 456, "type" : "VEC3", "max" : [12.553277015686035, 13.199291229248047, 40.965904235839844], "min" : [-12.553277015686035, -13.199291229248047, 0], "name" : "POSITION"}, {"bufferView" : 1, "byteOffset" : 12, "componentType" : 5126, "count" : 456, "type" : "VEC3", "max" : [0.973179817199707, 0.9945265650749207, 1.0000044107437134], "min" : [-0.973179817199707, -0.9945263266563416, -1.0000044107437134], "name" : "NORMAL"}], "asset" : {"generator" : "Aspose.3D 23.7.0", "version" : "2.0"}, "buffers" : [{"uri" : "data:application/octet-stream;base64,", "byteLength" : 12020}], "bufferViews" : [{"buffer" : 0, "byteOffset" : 0, "byteLength" : 924, "target" : 34963}, {"buffer" : 0, "byteOffset" : 928, "byteLength" : 11088, "byteStride" : 24, "target" : 34962}], "meshes" : [{"primitives" : [{"attributes" : {"POSITION" : 1, "NORMAL" : 2}, "indices" : 0, "mode" : 4}], "name" : ""}], "nodes" : [{"mesh" : 0, "name" : ""}], "scene" : 0, "scenes" : [{"nodes" : [0]}]}